<svg height="512pt" viewBox="0 -21 512 512" width="512pt" xmlns="http://www.w3.org/2000/svg"><path d="m52.757812 433.332031h109.792969v29.105469h-109.792969zm0 0" fill="#dad0cd"/><path d="m215.3125 287.882812v142.019532c0 5.125-4.160156 9.285156-9.285156 9.285156h-196.746094c-5.125 0-9.27734375-4.160156-9.27734375-9.285156v-142.019532c0-5.128906 4.15234375-9.289062 9.27734375-9.289062h196.742188c5.128906 0 9.289062 4.160156 9.289062 9.289062zm0 0" fill="#14f2d7"/><path d="m136.898438 278.59375-136.89453175 136.90625v-35.535156l101.37499975-101.371094zm0 0" fill="#a6fff2"/><path d="m196.636719 278.59375-160.59375 160.59375h-22.980469l160.59375-160.59375zm0 0" fill="#a6fff2"/><path d="m215.308594 288.546875v140.6875c0 5.496094-3.875 9.949219-8.664063 9.949219h-19.878906c4.789063 0 8.664063-4.453125 8.664063-9.949219v-140.6875c0-5.5-3.875-9.953125-8.664063-9.953125h19.878906c4.789063 0 8.664063 4.453125 8.664063 9.953125zm0 0" fill="#00e2c7"/><path d="m215.308594 414.792969v14.4375c0 5.5-3.875 9.953125-8.664063 9.953125h-197.980469c-4.785156 0-8.664062-4.453125-8.664062-9.953125v-14.4375zm0 0" fill="#6b97af"/><path d="m215.308594 414.792969v14.4375c0 5.5-3.875 9.953125-8.664063 9.953125h-19.878906c4.789063 0 8.664063-4.453125 8.664063-9.953125v-14.4375zm0 0" fill="#50758e"/><path d="m172.78125 470.164062h-130.253906c-4.265625 0-7.726563-3.460937-7.726563-7.726562s3.460938-7.726562 7.726563-7.726562h130.253906c4.269531 0 7.726562 3.460937 7.726562 7.726562s-3.457031 7.726562-7.726562 7.726562zm0 0" fill="#6b97af"/><path d="m422.179688 219.621094h-146.539063c-6.5625 0-11.902344-5.339844-11.902344-11.898438v-11.4375c0-4.269531-3.457031-7.726562-7.726562-7.726562-4.265625 0-7.726563 3.457031-7.726563 7.726562v11.4375c0 6.558594-5.335937 11.898438-11.898437 11.898438h-146.542969c-15.082031 0-27.355469 12.273437-27.355469 27.355468 0 4.265626 3.460938 7.726563 7.726563 7.726563 4.269531 0 7.726562-3.460937 7.726562-7.726563 0-6.5625 5.339844-11.902343 11.902344-11.902343h146.539062c7.695313 0 14.652344-3.195313 19.628907-8.328125 4.972656 5.132812 11.933593 8.328125 19.628906 8.328125h146.539063c6.5625 0 11.902343 5.339843 11.902343 11.902343 0 4.265626 3.457031 7.726563 7.726563 7.726563 4.265625 0 7.722656-3.460937 7.722656-7.726563.003906-15.082031-12.265625-27.355468-27.351562-27.355468zm0 0" fill="#dad0cd"/><path d="m497.132812 287.886719v121.476562c0 5.125-4.160156 9.285157-9.28125 9.285157h-196.746093c-3.378907 0-6.324219-1.796876-7.945313-4.488282-.851562-1.394531-1.335937-3.039062-1.335937-4.796875v-121.476562c0-5.136719 4.148437-9.292969 9.28125-9.292969h196.746093c5.121094 0 9.28125 4.15625 9.28125 9.292969zm0 0" fill="#14f2d7"/><path d="m418.714844 278.59375-135.554688 135.566406c-.851562-1.394531-1.335937-3.039062-1.335937-4.796875v-29.394531l101.363281-101.375zm0 0" fill="#a6fff2"/><path d="m461.339844 278.59375-140.054688 140.054688h-22.980468l140.054687-140.054688zm0 0" fill="#a6fff2"/><path d="m497.128906 288.546875v120.148437c0 5.5-3.878906 9.953126-8.664062 9.953126h-19.878906c4.785156 0 8.660156-4.453126 8.660156-9.953126v-120.148437c0-5.5-3.875-9.953125-8.660156-9.953125h19.878906c4.785156 0 8.664062 4.453125 8.664062 9.953125zm0 0" fill="#00e2c7"/><path d="m512 412.722656v5.6875c0 5.671875-4.597656 10.269532-10.269531 10.269532h-224.515625c-5.671875 0-10.269532-4.597657-10.269532-10.269532v-5.6875c0-5.667968 4.597657-10.265625 10.269532-10.265625h72.902344l6.160156 5.234375h66.390625l6.160156-5.234375h72.902344c5.671875 0 10.269531 4.597657 10.269531 10.265625zm0 0" fill="#6b97af"/><path d="m341.859375 68.746094c-7.378906-39.136719-41.738281-68.74218775-83.019531-68.74218775-45.59375 0-82.746094 36.11328175-84.425782 81.29296875-23.140624 1.222656-41.523437 20.371094-41.523437 43.8125 0 24.230469 19.644531 43.875 43.875 43.875h149.554687c28.339844 0 51.320313-22.976563 51.320313-51.320313-.003906-22.921874-15.039063-42.332031-35.78125-48.917968zm0 0" fill="#2ee0fd"/><path d="m377.636719 117.664062c0 23.414063-15.679688 43.164063-37.105469 49.324219 10.554688-9.394531 17.195312-23.085937 17.195312-38.324219 0-22.925781-15.035156-42.332031-35.777343-48.921874-7.375-39.132813-41.738281-68.738282-83.019531-68.738282-10.75 0-21.027344 2.007813-30.484376 5.667969 14.066407-10.476563 31.507813-16.671875 50.394532-16.671875 41.28125 0 75.640625 29.609375 83.019531 68.746094 20.742187 6.582031 35.777344 25.996094 35.777344 48.917968zm0 0" fill="#27bef4"/></svg>