<?xml version="1.0" encoding="iso-8859-1"?>
<!-- Generator: Adobe Illustrator 19.0.0, SVG Export Plug-In . SVG Version: 6.00 Build 0)  -->
<svg version="1.1" id="Capa_1" xmlns="http://www.w3.org/2000/svg" xmlns:xlink="http://www.w3.org/1999/xlink" x="0px" y="0px"
	 viewBox="0 0 512 512" style="enable-background:new 0 0 512 512;" xml:space="preserve">
<path style="fill:#D9D9DB;" d="M1,0v512h86v-37c0-2.757,2.243-5,5-5h88c2.757,0,5,2.243,5,5v37h142v-37c0-2.757,2.243-5,5-5h88
	c2.757,0,5,2.243,5,5v37h86V0H1z"/>
<path style="fill:#C8C6CD;" d="M256,0v512h71v-37c0-2.757,2.243-5,5-5h88c2.757,0,5,2.243,5,5v37h86V0H256z"/>
<g>
	<rect x="451" y="87" style="fill:#78777F;" width="60" height="30"/>
	<rect x="256" y="87" style="fill:#78777F;" width="45" height="30"/>
</g>
<path style="fill:#57555C;" d="M466,162H286V42h180V162z"/>
<g>
	<rect x="211" y="217" style="fill:#AEADB3;" width="45" height="30"/>
	<rect x="1" y="217" style="fill:#AEADB3;" width="60" height="30"/>
</g>
<path style="fill:#78777F;" d="M226,292H46V172h180V292z"/>
<g>
	<rect x="211" y="87" style="fill:#AEADB3;" width="45" height="30"/>
	<rect x="1" y="87" style="fill:#AEADB3;" width="60" height="30"/>
</g>
<path style="fill:#78777F;" d="M226,162H46V42h180V162z"/>
<g>
	<rect x="211" y="348" style="fill:#AEADB3;" width="45" height="30"/>
	<rect x="1" y="348" style="fill:#AEADB3;" width="60" height="30"/>
</g>
<g>
	<path style="fill:#78777F;" d="M226,423H46V303h180V423z"/>
	<rect x="451" y="217" style="fill:#78777F;" width="60" height="30"/>
	<rect x="256" y="217" style="fill:#78777F;" width="45" height="30"/>
	<path style="fill:#78777F;" d="M466,292H286V172h180V292z"/>
	<rect x="451" y="348" style="fill:#78777F;" width="60" height="30"/>
	<rect x="256" y="348" style="fill:#78777F;" width="45" height="30"/>
</g>
<path style="fill:#57555C;" d="M466,423H286V303h180V423z"/>
<g>
</g>
<g>
</g>
<g>
</g>
<g>
</g>
<g>
</g>
<g>
</g>
<g>
</g>
<g>
</g>
<g>
</g>
<g>
</g>
<g>
</g>
<g>
</g>
<g>
</g>
<g>
</g>
<g>
</g>
</svg>
