<svg height="480pt" viewBox="0 0 480 480" width="480pt" xmlns="http://www.w3.org/2000/svg"><path d="m416 384h-16v-32h-88v-16h96c4.414062 0 8 3.585938 8 8zm0 0" fill="#c6c5ca"/><path d="m408 464h-96v-16h88v-32h16v40c0 4.414062-3.585938 8-8 8zm0 0" fill="#c6c5ca"/><path d="m464 408h-40v-16h32v-112h16v120c0 4.414062-3.585938 8-8 8zm0 0" fill="#c6c5ca"/><path d="m56 408h-40c-4.414062 0-8-3.585938-8-8v-120h16v112h32zm0 0" fill="#c6c5ca"/><path d="m232 272h16v56h-16zm0 0" fill="#c6c5ca"/><path d="m176 376h128v48h-128zm0 0" fill="#c6c5ca"/><path d="m160 416h160v64h-160zm0 0" fill="#57565c"/><path d="m160 416h136v64h-136zm0 0" fill="#78767f"/><path d="m160 320h160v64h-160zm0 0" fill="#57565c"/><path d="m160 320h136v64h-136zm0 0" fill="#78767f"/><path d="m0 224h160v64h-160zm0 0" fill="#57565c"/><path d="m0 224h136v64h-136zm0 0" fill="#78767f"/><path d="m320 224h160v64h-160zm0 0" fill="#57565c"/><path d="m320 224h136v64h-136zm0 0" fill="#78767f"/><path d="m120 160c-22.089844 0-40-17.910156-40-40s17.910156-40 40-40c5.769531 0 11.222656 1.273438 16.175781 3.472656-.078125-1.152344-.175781-2.296875-.175781-3.472656 0-26.511719 21.488281-48 48-48 13.527344 0 25.726562 5.617188 34.457031 14.625 7.574219-26.898438 32.230469-46.625 61.542969-46.625 35.34375 0 64 28.65625 64 64 0 7.519531-1.367188 14.710938-3.753906 21.40625 5.851562-3.34375 12.53125-5.40625 19.753906-5.40625 22.089844 0 40 17.910156 40 40s-17.910156 40-40 40zm0 0" fill="#bad7f1"/><path d="m376 120c0-17.886719-11.824219-32.855469-28.023438-37.976562-2.695312.886718-5.296874 1.992187-7.730468 3.382812.5625-1.582031 1.058594-3.199219 1.507812-4.832031-1.898437-.269531-3.785156-.574219-5.753906-.574219-7.222656 0-13.902344 2.0625-19.753906 5.40625 2.386718-6.695312 3.753906-13.886719 3.753906-21.40625 0-31.238281-22.390625-57.207031-51.992188-62.832031-23.878906 4.542969-43.039062 22.335937-49.550781 45.457031-5.273437-5.441406-11.824219-9.609375-19.160156-12.089844-1.992187 3.832032-3.648437 7.855469-4.839844 12.089844-6.050781-6.242188-13.792969-10.800781-22.472656-13.039062-20.679687 5.335937-35.984375 24.0625-35.984375 46.414062 0 1.175781.097656 2.320312.175781 3.472656-4.953125-2.199218-10.40625-3.472656-16.175781-3.472656-2.726562 0-5.382812.28125-7.960938.800781.03125.894531.074219 1.785157.136719 2.671875-1.28125-.570312-2.601562-1.074218-3.945312-1.511718-16.308594 5.054687-28.230469 20.070312-28.230469 38.039062 0 22.089844 17.910156 40 40 40h216c22.089844 0 40-17.910156 40-40zm0 0" fill="#d5e7f6"/><g fill="#f5b866"><path d="m280 440h16v16h-16zm0 0"/><path d="m248 440h16v16h-16zm0 0"/><path d="m216 440h16v16h-16zm0 0"/><path d="m280 344h16v16h-16zm0 0"/><path d="m248 344h16v16h-16zm0 0"/><path d="m216 344h16v16h-16zm0 0"/><path d="m120 248h16v16h-16zm0 0"/><path d="m88 248h16v16h-16zm0 0"/><path d="m56 248h16v16h-16zm0 0"/><path d="m440 248h16v16h-16zm0 0"/><path d="m408 248h16v16h-16zm0 0"/><path d="m376 248h16v16h-16zm0 0"/></g><path d="m240 136c-17.648438 0-32-14.351562-32-32s14.351562-32 32-32 32 14.351562 32 32-14.351562 32-32 32zm0-48c-8.824219 0-16 7.175781-16 16s7.175781 16 16 16 16-7.175781 16-16-7.175781-16-16-16zm0 0" fill="#bad7f1"/><path d="m232 128h16v112h-16zm0 0" fill="#c6c5ca"/><path d="m80 384h-16v-40c0-4.414062 3.585938-8 8-8h88v16h-80zm0 0" fill="#c6c5ca"/><path d="m160 464h-88c-4.414062 0-8-3.585938-8-8v-40h16v32h80zm0 0" fill="#c6c5ca"/><path d="m176 96h40v16h-40zm0 0" fill="#bad7f1"/><path d="m264 96h40v16h-40zm0 0" fill="#bad7f1"/><path d="m432 400c0 13.253906-10.746094 24-24 24s-24-10.746094-24-24 10.746094-24 24-24 24 10.746094 24 24zm0 0" fill="#7cc083"/><path d="m96 400c0 13.253906-10.746094 24-24 24s-24-10.746094-24-24 10.746094-24 24-24 24 10.746094 24 24zm0 0" fill="#f5b866"/><path d="m264 256c0 13.253906-10.746094 24-24 24s-24-10.746094-24-24 10.746094-24 24-24 24 10.746094 24 24zm0 0" fill="#67a4f8"/></svg>