<?xml version="1.0" encoding="UTF-8"?>
<svg xmlns="http://www.w3.org/2000/svg" xmlns:xlink="http://www.w3.org/1999/xlink" width="128pt" height="128pt" viewBox="0 0 128 128" version="1.1">
<g id="surface1">
<path style=" stroke:none;fill-rule:nonzero;fill:rgb(43.921569%,45.098039%,51.764706%);fill-opacity:1;" d="M 90.484375 0 L 37.515625 0 C 33.859375 0 30.898438 2.964844 30.898438 6.621094 L 30.898438 121.378906 C 30.898438 125.035156 33.859375 128 37.515625 128 L 90.484375 128 C 94.140625 128 97.101562 125.035156 97.101562 121.378906 L 97.101562 6.621094 C 97.101562 2.964844 94.140625 0 90.484375 0 Z M 55.171875 8.828125 C 55.171875 7.609375 56.160156 6.621094 57.378906 6.621094 L 70.621094 6.621094 C 71.839844 6.621094 72.828125 7.609375 72.828125 8.828125 C 72.828125 10.046875 71.839844 11.035156 70.621094 11.035156 L 57.378906 11.035156 C 56.160156 11.035156 55.171875 10.046875 55.171875 8.828125 Z M 48.550781 6.621094 C 49.769531 6.621094 50.757812 7.609375 50.757812 8.828125 C 50.757812 10.046875 49.769531 11.035156 48.550781 11.035156 C 47.332031 11.035156 46.34375 10.046875 46.34375 8.828125 C 46.34375 7.609375 47.332031 6.621094 48.550781 6.621094 Z M 64 123.585938 C 61.5625 123.585938 59.585938 121.609375 59.585938 119.171875 C 59.585938 116.734375 61.5625 114.757812 64 114.757812 C 66.4375 114.757812 68.414062 116.734375 68.414062 119.171875 C 68.414062 121.609375 66.4375 123.585938 64 123.585938 Z M 92.691406 83.863281 L 92.691406 110.34375 L 35.308594 110.34375 L 35.308594 17.65625 L 92.691406 17.65625 Z M 92.691406 83.863281 "/>
<path style=" stroke:none;fill-rule:nonzero;fill:rgb(38.823529%,68.627451%,85.882353%);fill-opacity:1;" d="M 35.308594 83.863281 L 52.964844 83.863281 C 52.964844 82.644531 53.953125 81.65625 55.171875 81.65625 C 56.390625 81.65625 57.378906 82.644531 57.378906 83.863281 L 61.792969 83.863281 C 61.792969 82.644531 62.78125 81.65625 64 81.65625 C 65.21875 81.65625 66.207031 82.644531 66.207031 83.863281 L 70.621094 83.863281 C 70.621094 82.644531 71.609375 81.65625 72.828125 81.65625 C 74.046875 81.65625 75.035156 82.644531 75.035156 83.863281 L 92.691406 83.863281 L 92.691406 17.65625 L 35.308594 17.65625 Z M 75.035156 28.691406 C 75.035156 27.472656 76.023438 26.484375 77.242188 26.484375 L 86.070312 26.484375 C 87.289062 26.484375 88.277344 27.472656 88.277344 28.691406 L 88.277344 37.515625 C 88.277344 38.734375 87.289062 39.722656 86.070312 39.722656 L 77.242188 39.722656 C 76.023438 39.722656 75.035156 38.734375 75.035156 37.515625 Z M 75.035156 46.34375 C 75.035156 45.125 76.023438 44.136719 77.242188 44.136719 L 86.070312 44.136719 C 87.289062 44.136719 88.277344 45.125 88.277344 46.34375 L 88.277344 55.171875 C 88.277344 56.390625 87.289062 57.378906 86.070312 57.378906 L 77.242188 57.378906 C 76.023438 57.378906 75.035156 56.390625 75.035156 55.171875 Z M 75.035156 64 C 75.035156 62.78125 76.023438 61.792969 77.242188 61.792969 L 86.070312 61.792969 C 87.289062 61.792969 88.277344 62.78125 88.277344 64 L 88.277344 72.828125 C 88.277344 74.046875 87.289062 75.035156 86.070312 75.035156 L 77.242188 75.035156 C 76.023438 75.035156 75.035156 74.046875 75.035156 72.828125 Z M 57.378906 28.691406 C 57.378906 27.472656 58.367188 26.484375 59.585938 26.484375 L 68.414062 26.484375 C 69.632812 26.484375 70.621094 27.472656 70.621094 28.691406 L 70.621094 37.515625 C 70.621094 38.734375 69.632812 39.722656 68.414062 39.722656 L 59.585938 39.722656 C 58.367188 39.722656 57.378906 38.734375 57.378906 37.515625 Z M 57.378906 46.34375 C 57.378906 45.125 58.367188 44.136719 59.585938 44.136719 L 68.414062 44.136719 C 69.632812 44.136719 70.621094 45.125 70.621094 46.34375 L 70.621094 55.171875 C 70.621094 56.390625 69.632812 57.378906 68.414062 57.378906 L 59.585938 57.378906 C 58.367188 57.378906 57.378906 56.390625 57.378906 55.171875 Z M 57.378906 64 C 57.378906 62.78125 58.367188 61.792969 59.585938 61.792969 L 68.414062 61.792969 C 69.632812 61.792969 70.621094 62.78125 70.621094 64 L 70.621094 72.828125 C 70.621094 74.046875 69.632812 75.035156 68.414062 75.035156 L 59.585938 75.035156 C 58.367188 75.035156 57.378906 74.046875 57.378906 72.828125 Z M 39.722656 28.691406 C 39.722656 27.472656 40.710938 26.484375 41.929688 26.484375 L 50.757812 26.484375 C 51.976562 26.484375 52.964844 27.472656 52.964844 28.691406 L 52.964844 37.515625 C 52.964844 38.734375 51.976562 39.722656 50.757812 39.722656 L 41.929688 39.722656 C 40.710938 39.722656 39.722656 38.734375 39.722656 37.515625 Z M 39.722656 46.34375 C 39.722656 45.125 40.710938 44.136719 41.929688 44.136719 L 50.757812 44.136719 C 51.976562 44.136719 52.964844 45.125 52.964844 46.34375 L 52.964844 55.171875 C 52.964844 56.390625 51.976562 57.378906 50.757812 57.378906 L 41.929688 57.378906 C 40.710938 57.378906 39.722656 56.390625 39.722656 55.171875 Z M 39.722656 64 C 39.722656 62.78125 40.710938 61.792969 41.929688 61.792969 L 50.757812 61.792969 C 51.976562 61.792969 52.964844 62.78125 52.964844 64 L 52.964844 72.828125 C 52.964844 74.046875 51.976562 75.035156 50.757812 75.035156 L 41.929688 75.035156 C 40.710938 75.035156 39.722656 74.046875 39.722656 72.828125 Z M 39.722656 64 "/>
<path style=" stroke:none;fill-rule:nonzero;fill:rgb(27.45098%,54.901961%,74.509804%);fill-opacity:1;" d="M 72.828125 86.070312 C 71.609375 86.070312 70.621094 85.082031 70.621094 83.863281 L 66.207031 83.863281 C 66.207031 85.082031 65.21875 86.070312 64 86.070312 C 62.78125 86.070312 61.792969 85.082031 61.792969 83.863281 L 57.378906 83.863281 C 57.378906 85.082031 56.390625 86.070312 55.171875 86.070312 C 53.953125 86.070312 52.964844 85.082031 52.964844 83.863281 L 35.308594 83.863281 L 35.308594 110.34375 L 92.6875 110.34375 L 92.6875 83.863281 L 75.035156 83.863281 C 75.035156 85.082031 74.046875 86.070312 72.828125 86.070312 Z M 52.964844 101.515625 C 52.964844 102.734375 51.976562 103.722656 50.757812 103.722656 L 41.929688 103.722656 C 40.710938 103.722656 39.722656 102.734375 39.722656 101.515625 L 39.722656 92.691406 C 39.722656 91.472656 40.710938 90.484375 41.929688 90.484375 L 50.757812 90.484375 C 51.976562 90.484375 52.964844 91.472656 52.964844 92.691406 Z M 70.621094 101.515625 C 70.621094 102.734375 69.632812 103.722656 68.414062 103.722656 L 59.585938 103.722656 C 58.367188 103.722656 57.378906 102.734375 57.378906 101.515625 L 57.378906 92.691406 C 57.378906 91.472656 58.367188 90.484375 59.585938 90.484375 L 68.414062 90.484375 C 69.632812 90.484375 70.621094 91.472656 70.621094 92.691406 Z M 77.242188 90.484375 L 86.070312 90.484375 C 87.289062 90.484375 88.277344 91.472656 88.277344 92.691406 L 88.277344 101.515625 C 88.277344 102.734375 87.289062 103.722656 86.070312 103.722656 L 77.242188 103.722656 C 76.023438 103.722656 75.035156 102.734375 75.035156 101.515625 L 75.035156 92.691406 C 75.035156 91.472656 76.023438 90.484375 77.242188 90.484375 Z M 77.242188 90.484375 "/>
<path style=" stroke:none;fill-rule:nonzero;fill:rgb(27.45098%,27.45098%,33.333333%);fill-opacity:1;" d="M 57.378906 11.035156 L 70.621094 11.035156 C 71.839844 11.035156 72.828125 10.046875 72.828125 8.828125 C 72.828125 7.609375 71.839844 6.621094 70.621094 6.621094 L 57.378906 6.621094 C 56.160156 6.621094 55.171875 7.609375 55.171875 8.828125 C 55.171875 10.046875 56.160156 11.035156 57.378906 11.035156 Z M 57.378906 11.035156 "/>
<path style=" stroke:none;fill-rule:nonzero;fill:rgb(27.45098%,27.45098%,33.333333%);fill-opacity:1;" d="M 50.757812 8.828125 C 50.757812 10.046875 49.769531 11.035156 48.550781 11.035156 C 47.332031 11.035156 46.34375 10.046875 46.34375 8.828125 C 46.34375 7.609375 47.332031 6.621094 48.550781 6.621094 C 49.769531 6.621094 50.757812 7.609375 50.757812 8.828125 Z M 50.757812 8.828125 "/>
<path style=" stroke:none;fill-rule:nonzero;fill:rgb(27.45098%,27.45098%,33.333333%);fill-opacity:1;" d="M 68.414062 119.171875 C 68.414062 121.609375 66.4375 123.585938 64 123.585938 C 61.5625 123.585938 59.585938 121.609375 59.585938 119.171875 C 59.585938 116.734375 61.5625 114.757812 64 114.757812 C 66.4375 114.757812 68.414062 116.734375 68.414062 119.171875 Z M 68.414062 119.171875 "/>
<path style=" stroke:none;fill-rule:nonzero;fill:rgb(38.823529%,68.627451%,85.882353%);fill-opacity:1;" d="M 68.414062 90.484375 L 59.585938 90.484375 C 58.367188 90.484375 57.378906 91.472656 57.378906 92.691406 L 57.378906 101.515625 C 57.378906 102.734375 58.367188 103.722656 59.585938 103.722656 L 68.414062 103.722656 C 69.632812 103.722656 70.621094 102.734375 70.621094 101.515625 L 70.621094 92.691406 C 70.621094 91.472656 69.632812 90.484375 68.414062 90.484375 Z M 64 101.515625 C 61.5625 101.515625 59.585938 99.539062 59.585938 97.101562 C 59.585938 94.664062 61.5625 92.691406 64 92.691406 C 66.4375 92.691406 68.414062 94.664062 68.414062 97.101562 C 68.414062 99.539062 66.4375 101.515625 64 101.515625 Z M 64 101.515625 "/>
<path style=" stroke:none;fill-rule:nonzero;fill:rgb(100%,39.215686%,41.176471%);fill-opacity:1;" d="M 75.035156 101.515625 C 75.035156 102.734375 76.023438 103.722656 77.242188 103.722656 L 86.070312 103.722656 C 87.289062 103.722656 88.277344 102.734375 88.277344 101.515625 L 88.277344 92.691406 C 88.277344 91.472656 87.289062 90.484375 86.070312 90.484375 L 77.242188 90.484375 C 76.023438 90.484375 75.035156 91.472656 75.035156 92.691406 Z M 75.035156 101.515625 "/>
<path style=" stroke:none;fill-rule:nonzero;fill:rgb(0%,86.27451%,80.392157%);fill-opacity:1;" d="M 50.757812 90.484375 L 41.929688 90.484375 C 40.710938 90.484375 39.722656 91.472656 39.722656 92.691406 L 39.722656 101.515625 C 39.722656 102.734375 40.710938 103.722656 41.929688 103.722656 L 50.757812 103.722656 C 51.976562 103.722656 52.964844 102.734375 52.964844 101.515625 L 52.964844 92.691406 C 52.964844 91.472656 51.976562 90.484375 50.757812 90.484375 Z M 50.757812 90.484375 "/>
<path style=" stroke:none;fill-rule:nonzero;fill:rgb(100%,86.27451%,41.176471%);fill-opacity:1;" d="M 59.585938 75.035156 L 68.414062 75.035156 C 69.632812 75.035156 70.621094 74.046875 70.621094 72.828125 L 70.621094 64 C 70.621094 62.78125 69.632812 61.792969 68.414062 61.792969 L 59.585938 61.792969 C 58.367188 61.792969 57.378906 62.78125 57.378906 64 L 57.378906 72.828125 C 57.378906 74.046875 58.367188 75.035156 59.585938 75.035156 Z M 59.585938 75.035156 "/>
<path style=" stroke:none;fill-rule:nonzero;fill:rgb(100%,100%,100%);fill-opacity:1;" d="M 77.242188 75.035156 L 86.070312 75.035156 C 87.289062 75.035156 88.277344 74.046875 88.277344 72.828125 L 88.277344 64 C 88.277344 62.78125 87.289062 61.792969 86.070312 61.792969 L 77.242188 61.792969 C 76.023438 61.792969 75.035156 62.78125 75.035156 64 L 75.035156 72.828125 C 75.035156 74.046875 76.023438 75.035156 77.242188 75.035156 Z M 77.242188 68.414062 C 77.242188 67.195312 78.230469 66.207031 79.449219 66.207031 L 83.863281 66.207031 C 85.082031 66.207031 86.070312 67.195312 86.070312 68.414062 C 86.070312 69.632812 85.082031 70.621094 83.863281 70.621094 L 79.449219 70.621094 C 78.230469 70.621094 77.242188 69.632812 77.242188 68.414062 Z M 77.242188 68.414062 "/>
<path style=" stroke:none;fill-rule:nonzero;fill:rgb(27.45098%,54.901961%,74.509804%);fill-opacity:1;" d="M 41.929688 75.035156 L 50.757812 75.035156 C 51.976562 75.035156 52.964844 74.046875 52.964844 72.828125 L 52.964844 64 C 52.964844 62.78125 51.976562 61.792969 50.757812 61.792969 L 41.929688 61.792969 C 40.710938 61.792969 39.722656 62.78125 39.722656 64 L 39.722656 72.828125 C 39.722656 74.046875 40.710938 75.035156 41.929688 75.035156 Z M 41.929688 68.414062 C 41.929688 67.195312 42.917969 66.207031 44.136719 66.207031 L 48.550781 66.207031 C 49.769531 66.207031 50.757812 67.195312 50.757812 68.414062 C 50.757812 69.632812 49.769531 70.621094 48.550781 70.621094 L 44.136719 70.621094 C 42.917969 70.621094 41.929688 69.632812 41.929688 68.414062 Z M 41.929688 68.414062 "/>
<path style=" stroke:none;fill-rule:nonzero;fill:rgb(27.45098%,27.45098%,33.333333%);fill-opacity:1;" d="M 59.585938 57.378906 L 68.414062 57.378906 C 69.632812 57.378906 70.621094 56.390625 70.621094 55.171875 L 70.621094 46.34375 C 70.621094 45.125 69.632812 44.136719 68.414062 44.136719 L 59.585938 44.136719 C 58.367188 44.136719 57.378906 45.125 57.378906 46.34375 L 57.378906 55.171875 C 57.378906 56.390625 58.367188 57.378906 59.585938 57.378906 Z M 59.585938 50.757812 C 59.585938 49.539062 60.574219 48.550781 61.792969 48.550781 L 66.207031 48.550781 C 67.425781 48.550781 68.414062 49.539062 68.414062 50.757812 C 68.414062 51.976562 67.425781 52.964844 66.207031 52.964844 L 61.792969 52.964844 C 60.574219 52.964844 59.585938 51.976562 59.585938 50.757812 Z M 59.585938 50.757812 "/>
<path style=" stroke:none;fill-rule:nonzero;fill:rgb(100%,62.745098%,33.333333%);fill-opacity:1;" d="M 77.242188 57.378906 L 86.070312 57.378906 C 87.289062 57.378906 88.277344 56.390625 88.277344 55.171875 L 88.277344 46.34375 C 88.277344 45.125 87.289062 44.136719 86.070312 44.136719 L 77.242188 44.136719 C 76.023438 44.136719 75.035156 45.125 75.035156 46.34375 L 75.035156 55.171875 C 75.035156 56.390625 76.023438 57.378906 77.242188 57.378906 Z M 77.242188 57.378906 "/>
<path style=" stroke:none;fill-rule:nonzero;fill:rgb(62.745098%,84.313725%,47.058824%);fill-opacity:1;" d="M 41.929688 57.378906 L 50.757812 57.378906 C 51.976562 57.378906 52.964844 56.390625 52.964844 55.171875 L 52.964844 46.34375 C 52.964844 45.125 51.976562 44.136719 50.757812 44.136719 L 41.929688 44.136719 C 40.710938 44.136719 39.722656 45.125 39.722656 46.34375 L 39.722656 55.171875 C 39.722656 56.390625 40.710938 57.378906 41.929688 57.378906 Z M 46.34375 46.34375 C 48.78125 46.34375 50.757812 48.320312 50.757812 50.757812 C 50.757812 53.195312 48.78125 55.171875 46.34375 55.171875 C 43.90625 55.171875 41.929688 53.195312 41.929688 50.757812 C 41.929688 48.320312 43.90625 46.34375 46.34375 46.34375 Z M 46.34375 46.34375 "/>
<path style=" stroke:none;fill-rule:nonzero;fill:rgb(100%,39.215686%,41.176471%);fill-opacity:1;" d="M 59.585938 39.722656 L 68.414062 39.722656 C 69.632812 39.722656 70.621094 38.734375 70.621094 37.515625 L 70.621094 28.691406 C 70.621094 27.472656 69.632812 26.484375 68.414062 26.484375 L 59.585938 26.484375 C 58.367188 26.484375 57.378906 27.472656 57.378906 28.691406 L 57.378906 37.515625 C 57.378906 38.734375 58.367188 39.722656 59.585938 39.722656 Z M 59.585938 39.722656 "/>
<path style=" stroke:none;fill-rule:nonzero;fill:rgb(0%,86.27451%,80.392157%);fill-opacity:1;" d="M 77.242188 39.722656 L 86.070312 39.722656 C 87.289062 39.722656 88.277344 38.734375 88.277344 37.515625 L 88.277344 28.691406 C 88.277344 27.472656 87.289062 26.484375 86.070312 26.484375 L 77.242188 26.484375 C 76.023438 26.484375 75.035156 27.472656 75.035156 28.691406 L 75.035156 37.515625 C 75.035156 38.734375 76.023438 39.722656 77.242188 39.722656 Z M 81.65625 28.691406 C 84.09375 28.691406 86.070312 30.664062 86.070312 33.101562 C 86.070312 35.539062 84.09375 37.515625 81.65625 37.515625 C 79.21875 37.515625 77.242188 35.539062 77.242188 33.101562 C 77.242188 30.664062 79.21875 28.691406 81.65625 28.691406 Z M 81.65625 28.691406 "/>
<path style=" stroke:none;fill-rule:nonzero;fill:rgb(100%,86.27451%,41.176471%);fill-opacity:1;" d="M 41.929688 39.722656 L 50.757812 39.722656 C 51.976562 39.722656 52.964844 38.734375 52.964844 37.515625 L 52.964844 28.691406 C 52.964844 27.472656 51.976562 26.484375 50.757812 26.484375 L 41.929688 26.484375 C 40.710938 26.484375 39.722656 27.472656 39.722656 28.691406 L 39.722656 37.515625 C 39.722656 38.734375 40.710938 39.722656 41.929688 39.722656 Z M 41.929688 39.722656 "/>
<path style=" stroke:none;fill-rule:nonzero;fill:rgb(100%,86.27451%,41.176471%);fill-opacity:1;" d="M 50.757812 50.757812 C 50.757812 53.195312 48.78125 55.171875 46.34375 55.171875 C 43.90625 55.171875 41.929688 53.195312 41.929688 50.757812 C 41.929688 48.320312 43.90625 46.34375 46.34375 46.34375 C 48.78125 46.34375 50.757812 48.320312 50.757812 50.757812 Z M 50.757812 50.757812 "/>
<path style=" stroke:none;fill-rule:nonzero;fill:rgb(100%,86.27451%,41.176471%);fill-opacity:1;" d="M 68.414062 97.101562 C 68.414062 99.542969 66.4375 101.515625 64 101.515625 C 61.5625 101.515625 59.585938 99.542969 59.585938 97.101562 C 59.585938 94.664062 61.5625 92.691406 64 92.691406 C 66.4375 92.691406 68.414062 94.664062 68.414062 97.101562 Z M 68.414062 97.101562 "/>
<path style=" stroke:none;fill-rule:nonzero;fill:rgb(100%,39.215686%,41.176471%);fill-opacity:1;" d="M 86.070312 33.101562 C 86.070312 35.542969 84.09375 37.515625 81.65625 37.515625 C 79.21875 37.515625 77.242188 35.542969 77.242188 33.101562 C 77.242188 30.664062 79.21875 28.691406 81.65625 28.691406 C 84.09375 28.691406 86.070312 30.664062 86.070312 33.101562 Z M 86.070312 33.101562 "/>
<path style=" stroke:none;fill-rule:nonzero;fill:rgb(27.45098%,54.901961%,74.509804%);fill-opacity:1;" d="M 61.792969 52.964844 L 66.207031 52.964844 C 67.425781 52.964844 68.414062 51.976562 68.414062 50.757812 C 68.414062 49.539062 67.425781 48.550781 66.207031 48.550781 L 61.792969 48.550781 C 60.574219 48.550781 59.585938 49.539062 59.585938 50.757812 C 59.585938 51.976562 60.574219 52.964844 61.792969 52.964844 Z M 61.792969 52.964844 "/>
<path style=" stroke:none;fill-rule:nonzero;fill:rgb(100%,39.215686%,41.176471%);fill-opacity:1;" d="M 79.449219 70.621094 L 83.863281 70.621094 C 85.082031 70.621094 86.070312 69.632812 86.070312 68.414062 C 86.070312 67.195312 85.082031 66.207031 83.863281 66.207031 L 79.449219 66.207031 C 78.230469 66.207031 77.242188 67.195312 77.242188 68.414062 C 77.242188 69.632812 78.230469 70.621094 79.449219 70.621094 Z M 79.449219 70.621094 "/>
<path style=" stroke:none;fill-rule:nonzero;fill:rgb(100%,100%,100%);fill-opacity:1;" d="M 44.136719 70.621094 L 48.550781 70.621094 C 49.769531 70.621094 50.757812 69.632812 50.757812 68.414062 C 50.757812 67.195312 49.769531 66.207031 48.550781 66.207031 L 44.136719 66.207031 C 42.917969 66.207031 41.929688 67.195312 41.929688 68.414062 C 41.929688 69.632812 42.917969 70.621094 44.136719 70.621094 Z M 44.136719 70.621094 "/>
<path style=" stroke:none;fill-rule:nonzero;fill:rgb(27.45098%,27.45098%,33.333333%);fill-opacity:1;" d="M 57.378906 83.863281 C 57.378906 85.082031 56.390625 86.070312 55.171875 86.070312 C 53.953125 86.070312 52.964844 85.082031 52.964844 83.863281 C 52.964844 82.644531 53.953125 81.65625 55.171875 81.65625 C 56.390625 81.65625 57.378906 82.644531 57.378906 83.863281 Z M 57.378906 83.863281 "/>
<path style=" stroke:none;fill-rule:nonzero;fill:rgb(100%,100%,100%);fill-opacity:1;" d="M 66.207031 83.863281 C 66.207031 85.082031 65.21875 86.070312 64 86.070312 C 62.78125 86.070312 61.792969 85.082031 61.792969 83.863281 C 61.792969 82.644531 62.78125 81.65625 64 81.65625 C 65.21875 81.65625 66.207031 82.644531 66.207031 83.863281 Z M 66.207031 83.863281 "/>
<path style=" stroke:none;fill-rule:nonzero;fill:rgb(100%,100%,100%);fill-opacity:1;" d="M 75.035156 83.863281 C 75.035156 85.082031 74.046875 86.070312 72.828125 86.070312 C 71.609375 86.070312 70.621094 85.082031 70.621094 83.863281 C 70.621094 82.644531 71.609375 81.65625 72.828125 81.65625 C 74.046875 81.65625 75.035156 82.644531 75.035156 83.863281 Z M 75.035156 83.863281 "/>
</g>
</svg>
